
<svg height="60" viewBox="0 0 120.00001 60.000001" width="120" xmlns="http://www.w3.org/2000/svg"><g fill="#0082c9" transform="translate(0 -1.251807)"><path d="m60.029218 8.2077865c-6.895491 0-12.739127 4.6749085-14.550654 10.9860355-1.577782-3.389308-4.967091-5.726764-8.940764-5.726764-5.376145 0-9.817309 4.441164-9.817309 9.875746s4.441164 9.875746 9.875745 9.875746c3.915237 0 7.362982-2.337455 8.940764-5.726764 1.753091 6.311127 7.596727 10.986036 14.492218 10.986036 6.837055 0 12.680691-4.616472 14.550655-10.869163 1.577782 3.272436 4.967091 5.551454 8.823891 5.551454 5.434582 0 9.875745-4.441163 9.875745-9.875745s-4.441163-9.81731-9.875745-9.81731c-3.8568 0-7.246109 2.279019-8.823891 5.551455-1.869964-6.194254-7.655164-10.8107265-14.550655-10.8107265zm0 5.7851995c5.200837 0 9.349819 4.148982 9.349819 9.349818 0 5.200837-4.148982 9.349818-9.349819 9.349818-5.200836 0-9.349818-4.148981-9.349818-9.349818 0-5.200835 4.148982-9.349817 9.349818-9.349818zm-23.432982 5.259272c2.279019 0 4.090546 1.811528 4.090546 4.090546s-1.811527 4.090546-4.090546 4.090546c-2.279018 0-4.090545-1.811528-4.090545-4.090546s1.811527-4.090546 4.090545-4.090546zm46.807528 0c2.279018 0 4.090545 1.811528 4.090545 4.090546s-1.811527 4.090546-4.090545 4.090546-4.090546-1.811528-4.090546-4.090546c.05844-2.279018 1.811528-4.090546 4.090546-4.090546z" stroke-width=".584364"/><g transform="matrix(.35360599 0 0 .35360599 25.75326 36.085118)"><path d="m37.7 28.4c5.9 0 9.2 4.2 9.2 10.5 0 .6-.5 1.1-1.1 1.1h-15.9c.1 5.6 4 8.8 8.5 8.8 2.8 0 4.8-1.2 5.8-2 .6-.4 1.1-.3 1.4.3l.3.5c.3.5.2 1-.3 1.4-1.2.9-3.8 2.4-7.3 2.4-6.5 0-11.5-4.7-11.5-11.5.1-7.2 4.9-11.5 10.9-11.5zm6.1 9.4c-.2-4.6-3-6.9-6.2-6.9-3.7 0-6.9 2.4-7.6 6.9z"/><path d="m76.9 31.6v-2.5-5.2c0-.7.4-1.1 1.1-1.1h.8c.7 0 1 .4 1 1.1v5.2h4.5c.7 0 1.1.4 1.1 1.1v.3c0 .7-.4 1-1.1 1h-4.5v11c0 5.1 3.1 5.7 4.8 5.8.9.1 1.2.3 1.2 1.1v.6c0 .7-.3 1-1.2 1-4.8 0-7.7-2.9-7.7-8.1z"/><path d="m99.8 28.4c3.8 0 6.2 1.6 7.3 2.5.5.4.6.9.1 1.5l-.3.5c-.4.6-.9.6-1.5.2-1-.7-2.9-2-5.5-2-4.8 0-8.6 3.6-8.6 8.9 0 5.2 3.8 8.8 8.6 8.8 3.1 0 5.2-1.4 6.2-2.3.6-.4 1-.3 1.4.3l.3.4c.3.6.2 1-.3 1.5-1.1.9-3.8 2.8-7.8 2.8-6.5 0-11.5-4.7-11.5-11.5.1-6.8 5.1-11.6 11.6-11.6z"/><path d="m113.1 21.3c0-.7-.4-1.1.3-1.1h.8c.7 0 1.8.4 1.8 1.1v23.9c0 2.8 1.3 3.1 2.3 3.2.5 0 .9.3.9 1v.7c0 .7-.3 1.1-1.1 1.1-1.8 0-5-.6-5-5.4z"/><path d="m133.6 28.4c6.4 0 11.6 4.9 11.6 11.4 0 6.6-5.2 11.6-11.6 11.6s-11.6-5-11.6-11.6c0-6.5 5.2-11.4 11.6-11.4zm0 20.4c4.7 0 8.5-3.8 8.5-9 0-5-3.8-8.7-8.5-8.7s-8.6 3.8-8.6 8.7c.1 5.1 3.9 9 8.6 9z"/><path d="m183.5 28.4c5.3 0 7.2 4.4 7.2 4.4h.1s-.1-.7-.1-1.7v-9.9c0-.7-.3-1.1.4-1.1h.8c.7 0 1.8.4 1.8 1.1v28.5c0 .7-.3 1.1-1 1.1h-.7c-.7 0-1.1-.3-1.1-1v-1.7c0-.8.2-1.4.2-1.4h-.1s-1.9 4.6-7.6 4.6c-5.9 0-9.6-4.7-9.6-11.5-.2-6.8 3.9-11.4 9.7-11.4zm.1 20.4c3.7 0 7.1-2.6 7.1-8.9 0-4.5-2.3-8.8-7-8.8-3.9 0-7.1 3.2-7.1 8.8.1 5.4 2.9 8.9 7 8.9z"/><path d="m1 50.9h.8c.7 0 1.1-.4 1.1-1.1v-21.4c0-3.4 3.7-5.8 7.9-5.8s7.9 2.4 7.9 5.8v21.5c0 .7.4 1.1 1.1 1.1h.8c.7 0 1-.4 1-1.1v-21.7c0-5.7-5.7-8.5-10.9-8.5-5 0-10.7 2.8-10.7 8.5v21.6c0 .7.3 1.1 1 1.1z"/><path d="m167.9 28.9h-.8c-.7 0-1.1.4-1.1 1.1v12.1c0 3.4-2.2 6.5-6.5 6.5-4.2 0-6.5-3.1-6.5-6.5v-12.1c0-.7-.4-1.1-1.1-1.1h-.8c-.7 0-1 .4-1 1.1v12.9c0 5.7 4.2 8.5 9.4 8.5 5.2 0 9.4-2.8 9.4-8.5v-12.9c.1-.7-.3-1.1-1-1.1z"/><path d="m68.9 28.8c-.2 0-.5.2-.7.5l-4 4.8-3 3.6-4.6-5.5-2.5-3c-.2-.3-.5-.4-.7-.4s-.5.1-.8.3l-.6.5c-.5.4-.5.9-.1 1.5l4 4.8 3.4 4-4.9 5.9-2.5 3c-.4.5-.4 1.1.1 1.6l.6.5c.5.4 1 .3 1.5-.2l4-4.8 3-3.6 4.6 5.5 2.5 3c.4.5 1 .6 1.5.1l.6-.5c.5-.4.5-.9.1-1.5l-4-4.8-3.4-4 4.9-5.9 2.5-3c.4-.5.4-1.1-.1-1.6l-.6-.6c-.3-.2-.5-.3-.8-.2z"/></g></g></svg>